# xmcd
#
# Track frame offsets: 
#        150
#        11605
#        25855
#        39995
#        58700
#        70962
#        82995
#        91170
#        100947
#        113615
#        124067
#        133202
#        146345
#        156627
#        175482
#        187975
#        201282
#
# Disc length: 2847 seconds
#
# Revision: 0
# Processed by: cddbd v1.5.2PL0 Copyright (c) Steve Scherf et al.
# Submitted via: ExactAudioCopy v1.3
#
DISCID=e70b1d11
DTITLE=Eli Silva e Zé Gioano - Sonhando com o Pantanal
DYEAR=2003
DGENRE=Country
TTITLE0=Sonhando com o pantanal
TTITLE1=Couro grosso
TTITLE2=Saudade e solidão
TTITLE3=Calango mineiro
TTITLE4=A marca do batom
TTITLE5=Chão sagrado
TTITLE6=Idolatro quem me ama
TTITLE7=Meu cenário
TTITLE8=A chamada do ponteiro
TTITLE9=Quebra quebra
TTITLE10=Eu só toco viola
TTITLE11=Por isso estou com ela
TTITLE12=Amor de poeta
TTITLE13=Etc...e tal
TTITLE14=Retalhos de poema
TTITLE15=Sangue de índio
TTITLE16=Homem de fibra
EXTD=
EXTT0=
EXTT1=
EXTT2=
EXTT3=
EXTT4=
EXTT5=
EXTT6=
EXTT7=
EXTT8=
EXTT9=
EXTT10=
EXTT11=
EXTT12=
EXTT13=
EXTT14=
EXTT15=
EXTT16=
PLAYORDER=
